<?xml version="1.0" encoding="UTF-8" standalone="no"?>
<!-- Created with Inkscape (http://www.inkscape.org/) -->

<svg
   xmlns:dc="http://purl.org/dc/elements/1.1/"
   xmlns:cc="http://creativecommons.org/ns#"
   xmlns:rdf="http://www.w3.org/1999/02/22-rdf-syntax-ns#"
   xmlns:svg="http://www.w3.org/2000/svg"
   xmlns="http://www.w3.org/2000/svg"
   xmlns:sodipodi="http://sodipodi.sourceforge.net/DTD/sodipodi-0.dtd"
   xmlns:inkscape="http://www.inkscape.org/namespaces/inkscape"
   width="210mm"
   height="297mm"
   viewBox="0 0 210 297"
   version="1.1"
   id="svg8"
   inkscape:version="0.92.3 (2405546, 2018-03-11)"
   sodipodi:docname="Tree_Light.svg"
   inkscape:export-filename="D:\proj\escape\Assets\Environment\Tree\Tree_Light.png"
   inkscape:export-xdpi="96"
   inkscape:export-ydpi="96">
  <defs
     id="defs2" />
  <sodipodi:namedview
     id="base"
     pagecolor="#ffffff"
     bordercolor="#666666"
     borderopacity="1.0"
     inkscape:pageopacity="0.0"
     inkscape:pageshadow="2"
     inkscape:zoom="0.7"
     inkscape:cx="469.14207"
     inkscape:cy="561.40372"
     inkscape:document-units="mm"
     inkscape:current-layer="layer1"
     showgrid="false"
     inkscape:window-width="1920"
     inkscape:window-height="1017"
     inkscape:window-x="-8"
     inkscape:window-y="-8"
     inkscape:window-maximized="1" />
  <metadata
     id="metadata5">
    <rdf:RDF>
      <cc:Work
         rdf:about="">
        <dc:format>image/svg+xml</dc:format>
        <dc:type
           rdf:resource="http://purl.org/dc/dcmitype/StillImage" />
        <dc:title></dc:title>
      </cc:Work>
    </rdf:RDF>
  </metadata>
  <g
     inkscape:label="Layer 1"
     inkscape:groupmode="layer"
     id="layer1">
    <path
       style="fill:#fff7ba;stroke:#ffde8a;stroke-width:2;stroke-linecap:butt;stroke-linejoin:miter;stroke-opacity:1;font-variant-east_asian:normal;opacity:1;vector-effect:none;fill-opacity:1;stroke-miterlimit:4;stroke-dasharray:none;stroke-dashoffset:0"
       d="m 120.5744,236.90178 c 3.77977,-18.14285 -14.36309,-85.04464 41.95536,-108.10119 56.31845,-23.05654 30.99405,-78.241068 30.99405,-78.241068 0,0 10.96131,35.907739 -7.18155,48.75893 -18.14286,12.851188 -71.81548,17.386898 -80.50893,47.624998 -8.69345,30.23809 -10.961307,55.5625 -10.961307,55.5625 z"
       id="path832"
       inkscape:connector-curvature="0" />
    <path
       style="fill:#fff7ba;stroke:#ffde8a;stroke-width:2;stroke-linecap:butt;stroke-linejoin:miter;stroke-opacity:1;fill-opacity:1;stroke-miterlimit:4;stroke-dasharray:none"
       d="m 83.910714,296.62202 c 0,0 19.654756,-39.30952 14.74107,-68.03571 C 93.738093,199.86012 63.122023,164.33035 41.955357,150.72321 20.78869,137.11607 28.348215,72.482143 28.348215,72.482143 c 0,0 -3.779763,41.199407 19.276784,63.877977 23.056548,22.67857 80.130951,55.94047 78.619051,76.72916 -1.51191,20.78869 -1.13393,71.81548 6.80357,76.3512 7.9375,4.5357 19.65476,8.69344 19.65476,8.69344"
       id="path815"
       inkscape:connector-curvature="0" />
    <path
       style="fill:#b3ff96;stroke:#72ff3c;stroke-width:2;stroke-linecap:butt;stroke-linejoin:miter;stroke-opacity:1;fill-opacity:1;stroke-miterlimit:4;stroke-dasharray:none"
       d="M 66.523808,167.35416 C 60.098214,177.55952 40.065475,194.56845 33.261905,192.30059 26.458333,190.03274 11.717262,171.13393 10.205357,169.24404 31.097276,117.06349 -18.873631,40.58832 21.166666,43.755952 c 20.788691,8.693452 30.616073,39.6875 28.726191,41.955357 -1.889882,2.267855 -13.607142,2.645834 -1.13393,24.946431 12.473215,22.30059 28.348215,30.99404 34.773811,30.61607 6.425594,-0.37798 12.473212,2.64583 9.827379,11.71726 -2.645833,9.07143 5.291667,18.52083 -1.889879,27.21428 -7.181548,8.69346 -27.592263,36.66369 -37.419645,22.67858 -9.827379,-13.98512 12.473215,-35.52977 12.473215,-35.52977 z"
       id="path848"
       inkscape:connector-curvature="0"
       sodipodi:nodetypes="ccccsscsssc" />
    <path
       style="fill:#b3ff96;stroke:#72ff3c;stroke-width:2;stroke-linecap:butt;stroke-linejoin:miter;stroke-opacity:1;font-variant-east_asian:normal;opacity:1;vector-effect:none;fill-opacity:1;stroke-miterlimit:4;stroke-dasharray:none;stroke-dashoffset:0"
       d="m 151.56845,156.01488 c -23.8125,3.02381 -57.452379,-20.41072 -51.02678,-42.71131 6.42559,-22.300594 14.36309,-74.083333 42.7113,-74.461308 28.34822,-0.377976 57.83036,-17.76488 54.0506,-3.02381 -3.77976,14.74107 13.98512,48.002976 12.47321,60.098212 -1.5119,12.095236 -2.64583,38.931546 -15.49702,46.113096 -12.85119,7.18155 -31.37202,-19.27678 -36.28571,-11.71726 -4.91369,7.55952 -6.4256,25.70238 -6.4256,25.70238 z"
       id="path850"
       inkscape:connector-curvature="0" />
  </g>
</svg>
